<svg width="447" height="304" viewBox="0 0 447 304" fill="none" xmlns="http://www.w3.org/2000/svg">
<path d="M75.1496 76.6827L74.9187 76.3711C72.9562 73.7192 69.8215 72.2991 66.5335 72.5728C63.2458 72.8462 60.3885 74.7644 58.8907 77.7041L46.7403 101.551C45.1012 104.767 45.4173 108.568 47.5648 111.47L53.306 119.227L44.3718 136.762C43.5901 138.296 43.6207 140.118 44.4541 141.626C45.0838 142.764 46.1093 143.609 47.3123 144.022L46.4262 145.761C45.6027 147.377 45.7099 149.221 46.5452 150.686L43.1278 157.393C41.4505 157.579 39.8963 158.576 39.073 160.192L37.1955 163.877C36.372 165.493 36.4792 167.337 37.3145 168.803L33.8976 175.509C32.2205 175.694 30.6663 176.691 29.8428 178.307L27.9653 181.992C27.0972 183.696 27.2654 185.652 28.2293 187.152C27.3132 189.952 27.0674 192.856 27.4254 195.662C25.6061 197.084 24.8993 199.6 25.8647 201.815C26.6172 203.541 27.6112 205.145 28.8201 206.582C30.1937 208.216 32.3606 208.788 34.2829 208.211C35.384 209.13 36.5995 209.945 37.9304 210.623C39.2716 211.306 40.6557 211.813 42.0578 212.164C42.7237 214.059 44.4627 215.474 46.5932 215.621C48.4662 215.751 50.349 215.608 52.1887 215.198C53.7601 214.847 55.0046 213.819 55.6826 212.488C56.0219 211.822 56.2169 211.08 56.2424 210.31C58.7194 208.946 60.9198 207.037 62.6411 204.648C64.419 204.544 66.097 203.531 66.9639 201.829L68.8414 198.145C69.6648 196.528 69.5576 194.685 68.7224 193.219L72.1396 186.512C73.8167 186.327 75.371 185.329 76.1944 183.713L78.0719 180.029C78.8954 178.412 78.7882 176.569 77.953 175.103L81.3702 168.396C83.0474 168.21 84.6017 167.213 85.425 165.597L87.3025 161.913C88.1259 160.296 88.0188 158.453 87.1835 156.987L90.6008 150.28C92.1141 150.112 93.5252 149.283 94.392 147.936C95.6307 147.504 96.6886 146.612 97.3088 145.395L108.822 122.799L122.652 122.723C123.326 124.82 125.298 126.333 127.618 126.32C129.626 126.309 131.361 125.159 132.213 123.485C132.577 122.771 132.78 121.962 132.776 121.105L132.739 114.31C132.723 111.446 130.388 109.136 127.524 109.152C125.374 109.164 123.538 110.482 122.761 112.349L114.123 112.397L119.298 102.24C125.692 89.6912 120.685 74.2795 108.136 67.8852C96.4066 61.9097 82.1815 65.894 75.1496 76.6827ZM54.9616 197.377C52.6683 201.878 47.1408 203.674 42.6398 201.38C38.1389 199.087 36.3429 193.559 38.6362 189.059L60.8856 145.392L80.5491 147.158L54.9613 197.377L54.9616 197.377ZM69.7892 86.8774L58.5682 108.9L56.2404 105.754L67.4611 83.7324L69.7892 86.8774ZM106.682 95.4718L86.6697 85.2748C89.6714 79.3836 96.2483 77.551 101.775 80.3669C107.301 83.1826 109.684 89.5803 106.682 95.4718Z" fill="#CA0707"/>
<path d="M52.4615 193.733C53.7854 191.135 52.7523 187.955 50.1539 186.631C47.5555 185.307 44.3759 186.34 43.052 188.939C41.728 191.537 42.7612 194.717 45.3595 196.041C47.9579 197.364 51.1375 196.331 52.4615 193.733Z" fill="#CA0707"/>
<path d="M22.5765 191.885C23.8791 189.328 22.8717 186.204 20.3262 184.907C17.7808 183.61 14.6613 184.631 13.3587 187.188C12.056 189.745 13.0635 192.868 15.6089 194.165C18.1543 195.462 21.2738 194.441 22.5765 191.885Z" fill="#CA0707"/>
<path d="M149.366 99.4434L148.986 99.441C145.751 99.4186 142.787 101.045 141.056 103.791C139.325 106.537 139.135 109.915 140.548 112.828L152.01 136.455C153.556 139.642 156.716 141.637 160.255 141.661L169.717 141.726L178.145 159.099C178.883 160.619 180.326 161.67 181.998 161.905C183.26 162.082 184.528 161.774 185.562 161.072L186.398 162.795C187.174 164.396 188.68 165.4 190.32 165.609L193.544 172.254C192.697 173.682 192.558 175.493 193.334 177.093L195.105 180.744C195.882 182.345 197.387 183.349 199.028 183.558L202.251 190.202C201.404 191.63 201.265 193.44 202.041 195.041L203.812 198.692C204.631 200.38 206.26 201.402 208.004 201.53C209.651 203.903 211.777 205.81 214.183 207.185C214.219 209.454 215.769 211.495 218.071 212.043C219.866 212.47 221.709 212.636 223.548 212.534C225.638 212.418 227.367 211.052 228.053 209.201C229.423 208.878 230.779 208.403 232.096 207.757C233.424 207.106 234.639 206.317 235.743 205.422C237.618 206.016 239.753 205.484 241.129 203.897C242.338 202.501 243.34 200.937 244.108 199.248C244.763 197.806 244.694 196.22 244.055 194.902C243.735 194.242 243.27 193.651 242.683 193.176C243.081 190.424 242.89 187.568 242.04 184.804C243.009 183.345 243.21 181.428 242.392 179.742L240.621 176.091C239.844 174.49 238.339 173.486 236.699 173.278L233.475 166.633C234.322 165.205 234.461 163.395 233.685 161.793L231.914 158.143C231.137 156.541 229.632 155.538 227.991 155.329L224.768 148.684C225.614 147.256 225.754 145.445 224.977 143.845L223.206 140.194C222.429 138.593 220.924 137.589 219.284 137.38L216.06 130.735C216.824 129.447 217.01 127.847 216.469 126.371C216.865 125.143 216.792 123.784 216.207 122.579L205.347 100.191L213.467 89.2741C215.506 89.9819 217.855 89.3247 219.217 87.4933C220.397 85.9083 220.523 83.8654 219.718 82.2068C219.375 81.4995 218.863 80.8623 218.19 80.3601L212.854 76.3786C210.605 74.7004 207.418 75.1729 205.736 77.434C204.474 79.131 204.418 81.3526 205.419 83.0652L200.347 89.8838L195.466 79.8211C189.434 67.3877 174.42 62.2279 161.997 68.3195C150.386 74.0132 145.088 87.5476 149.366 99.4434ZM231.811 186.55C233.974 191.009 232.11 196.415 227.654 198.599C223.198 200.784 217.813 198.934 215.65 194.474L194.661 151.21L207.673 136.794L231.811 186.55L231.811 186.55ZM154.168 109.674L164.753 131.494L160.916 131.467L150.332 109.648L154.168 109.674ZM182.711 85.7439L162.899 95.4582C160.068 89.6214 162.525 83.3694 167.995 80.6868C173.466 78.0044 179.879 79.9068 182.711 85.7439Z" fill="#CA0707"/>
<path d="M227.483 186.365C226.234 183.79 223.136 182.726 220.564 183.987C217.992 185.248 216.919 188.358 218.168 190.932C219.417 193.506 222.514 194.571 225.087 193.31C227.659 192.048 228.732 188.939 227.483 186.365Z" fill="#CA0707"/>
<path d="M119.884 112.67C124.602 105.276 135.398 105.276 140.116 112.67L172.783 163.862C177.88 171.85 172.143 182.317 162.667 182.317H97.333C87.8571 182.317 82.1197 171.85 87.2171 163.862L119.884 112.67Z" fill="#CA0707"/>
<mask id="path-7-outside-1_2_76" maskUnits="userSpaceOnUse" x="-3" y="208.817" width="381" height="68" fill="black">
<rect fill="white" x="-3" y="208.817" width="381" height="68"/>
<path d="M3.55469 235.958C2.38281 235.958 1.79688 235.502 1.79688 234.59V232.169C1.79688 231.257 2.38281 230.801 3.55469 230.801H8.16406V227.286C8.16406 226.765 8.29427 226.27 8.55469 225.801L11.2891 220.84C11.7839 219.929 12.1875 219.473 12.5 219.473H13.8672C14.6484 219.473 15.0391 219.929 15.0391 220.84V230.801H23.3594C24.5312 230.801 25.1172 231.257 25.1172 232.169V234.59C25.1172 235.502 24.5312 235.958 23.3594 235.958H15.0391V260.84C15.0391 263.575 15.4427 265.359 16.25 266.192C17.0833 266.999 18.0729 267.403 19.2188 267.403C20.1042 267.403 21.1589 267.143 22.3828 266.622C23.6328 266.101 24.4922 265.658 24.9609 265.294C25.4297 264.929 25.7943 265.046 26.0547 265.645L27.3438 268.653C27.5521 269.174 27.3958 269.59 26.875 269.903C25.8594 270.502 24.375 271.088 22.4219 271.661C20.4688 272.208 18.5156 272.481 16.5625 272.481C13.8542 272.481 11.7708 271.505 10.3125 269.551C8.88021 267.598 8.16406 264.838 8.16406 261.27V235.958H3.55469ZM36.9141 271.817C35.7422 271.817 35.1562 271.231 35.1562 270.059V232.559C35.1562 231.387 35.7422 230.801 36.9141 230.801H40.1953C41.3672 230.801 41.9531 231.387 41.9531 232.559V237.247H42.1094C43.3594 234.903 44.8307 233.132 46.5234 231.934C48.2161 230.736 50.3255 230.137 52.8516 230.137C54.5182 230.137 55.6901 230.281 56.3672 230.567C56.9661 230.801 57.1875 231.192 57.0312 231.739L56.1328 234.942C56.0026 235.411 55.6641 235.593 55.1172 235.489C54.2057 235.307 53.3464 235.215 52.5391 235.215C49.4922 235.215 46.9792 236.596 45 239.356C43.0208 242.09 42.0312 245.827 42.0312 250.567V270.059C42.0312 271.231 41.4453 271.817 40.2734 271.817H36.9141ZM61.1328 251.309C61.1328 244.851 62.7474 239.708 65.9766 235.88C69.2057 232.051 73.8281 230.137 79.8438 230.137C84.8438 230.137 88.9844 231.895 92.2656 235.411C95.5729 238.9 97.2266 244.486 97.2266 252.169C97.2266 253.34 96.6927 253.926 95.625 253.926H68.3984C68.8411 258.952 70.1953 262.455 72.4609 264.434C74.7266 266.387 77.2917 267.364 80.1562 267.364C83.1771 267.364 85.4948 266.856 87.1094 265.84C88.724 264.825 89.9089 263.822 90.6641 262.833C91.4974 261.739 92.3047 261.531 93.0859 262.208L95.3906 264.2C95.9896 264.721 95.9896 265.437 95.3906 266.348C94.8958 267.104 93.4766 268.314 91.1328 269.981C88.8151 271.648 85.1562 272.481 80.1562 272.481C73.6458 272.481 68.8411 270.567 65.7422 266.739C62.6693 262.911 61.1328 257.768 61.1328 251.309ZM68.2422 248.848H90.3125C90.2083 245.202 89.2708 242.012 87.5 239.278C85.7292 236.518 83.125 235.137 79.6875 235.137C76.6667 235.137 74.1016 236.153 71.9922 238.184C69.8828 240.189 68.6328 243.744 68.2422 248.848ZM104.023 251.309C104.023 244.851 105.638 239.708 108.867 235.88C112.096 232.051 116.719 230.137 122.734 230.137C127.734 230.137 131.875 231.895 135.156 235.411C138.464 238.9 140.117 244.486 140.117 252.169C140.117 253.34 139.583 253.926 138.516 253.926H111.289C111.732 258.952 113.086 262.455 115.352 264.434C117.617 266.387 120.182 267.364 123.047 267.364C126.068 267.364 128.385 266.856 130 265.84C131.615 264.825 132.799 263.822 133.555 262.833C134.388 261.739 135.195 261.531 135.977 262.208L138.281 264.2C138.88 264.721 138.88 265.437 138.281 266.348C137.786 267.104 136.367 268.314 134.023 269.981C131.706 271.648 128.047 272.481 123.047 272.481C116.536 272.481 111.732 270.567 108.633 266.739C105.56 262.911 104.023 257.768 104.023 251.309ZM111.133 248.848H133.203C133.099 245.202 132.161 242.012 130.391 239.278C128.62 236.518 126.016 235.137 122.578 235.137C119.557 235.137 116.992 236.153 114.883 238.184C112.773 240.189 111.523 243.744 111.133 248.848ZM152.188 271.817C150.885 271.817 150.234 271.101 150.234 269.669V217.95C150.234 216.518 150.885 215.801 152.188 215.801H184.023C185.456 215.801 186.172 216.387 186.172 217.559V220.45C186.172 221.622 185.456 222.208 184.023 222.208H157.734V240.723H180.664C182.096 240.723 182.812 241.309 182.812 242.481V245.372C182.812 246.544 182.096 247.13 180.664 247.13H157.734V269.669C157.734 271.101 157.083 271.817 155.781 271.817H152.188ZM192.461 251.309C192.461 244.851 194.076 239.708 197.305 235.88C200.534 232.051 205.156 230.137 211.172 230.137C216.172 230.137 220.312 231.895 223.594 235.411C226.901 238.9 228.555 244.486 228.555 252.169C228.555 253.34 228.021 253.926 226.953 253.926H199.727C200.169 258.952 201.523 262.455 203.789 264.434C206.055 266.387 208.62 267.364 211.484 267.364C214.505 267.364 216.823 266.856 218.438 265.84C220.052 264.825 221.237 263.822 221.992 262.833C222.826 261.739 223.633 261.531 224.414 262.208L226.719 264.2C227.318 264.721 227.318 265.437 226.719 266.348C226.224 267.104 224.805 268.314 222.461 269.981C220.143 271.648 216.484 272.481 211.484 272.481C204.974 272.481 200.169 270.567 197.07 266.739C193.997 262.911 192.461 257.768 192.461 251.309ZM199.57 248.848H221.641C221.536 245.202 220.599 242.012 218.828 239.278C217.057 236.518 214.453 235.137 211.016 235.137C207.995 235.137 205.43 236.153 203.32 238.184C201.211 240.189 199.961 243.744 199.57 248.848ZM239.336 271.817C238.164 271.817 237.578 271.231 237.578 270.059V221.309C237.578 220.788 237.708 220.294 237.969 219.825L240.703 214.864C241.198 213.952 241.602 213.497 241.914 213.497H243.281C244.062 213.497 244.453 213.952 244.453 214.864V270.059C244.453 271.231 243.867 271.817 242.695 271.817H239.336ZM257.305 271.817C256.133 271.817 255.547 271.231 255.547 270.059V221.309C255.547 220.788 255.677 220.294 255.938 219.825L258.672 214.864C259.167 213.952 259.57 213.497 259.883 213.497H261.25C262.031 213.497 262.422 213.952 262.422 214.864V270.059C262.422 271.231 261.836 271.817 260.664 271.817H257.305ZM271.289 251.309C271.289 244.851 272.904 239.708 276.133 235.88C279.362 232.051 283.984 230.137 290 230.137C295 230.137 299.141 231.895 302.422 235.411C305.729 238.9 307.383 244.486 307.383 252.169C307.383 253.34 306.849 253.926 305.781 253.926H278.555C278.997 258.952 280.352 262.455 282.617 264.434C284.883 266.387 287.448 267.364 290.312 267.364C293.333 267.364 295.651 266.856 297.266 265.84C298.88 264.825 300.065 263.822 300.82 262.833C301.654 261.739 302.461 261.531 303.242 262.208L305.547 264.2C306.146 264.721 306.146 265.437 305.547 266.348C305.052 267.104 303.633 268.314 301.289 269.981C298.971 271.648 295.312 272.481 290.312 272.481C283.802 272.481 278.997 270.567 275.898 266.739C272.826 262.911 271.289 257.768 271.289 251.309ZM278.398 248.848H300.469C300.365 245.202 299.427 242.012 297.656 239.278C295.885 236.518 293.281 235.137 289.844 235.137C286.823 235.137 284.258 236.153 282.148 238.184C280.039 240.189 278.789 243.744 278.398 248.848ZM318.164 271.817C316.992 271.817 316.406 271.231 316.406 270.059V232.559C316.406 231.387 316.992 230.801 318.164 230.801H321.445C322.617 230.801 323.203 231.387 323.203 232.559V237.247H323.359C324.609 234.903 326.081 233.132 327.773 231.934C329.466 230.736 331.576 230.137 334.102 230.137C335.768 230.137 336.94 230.281 337.617 230.567C338.216 230.801 338.438 231.192 338.281 231.739L337.383 234.942C337.253 235.411 336.914 235.593 336.367 235.489C335.456 235.307 334.596 235.215 333.789 235.215C330.742 235.215 328.229 236.596 326.25 239.356C324.271 242.09 323.281 245.827 323.281 250.567V270.059C323.281 271.231 322.695 271.817 321.523 271.817H318.164ZM343.008 267.989C342.201 267.234 342.031 266.531 342.5 265.88L344.258 263.419C344.831 262.637 345.677 262.676 346.797 263.536C348.333 264.708 350.039 265.645 351.914 266.348C353.815 267.051 355.977 267.403 358.398 267.403C359.831 267.403 361.107 267.234 362.227 266.895C363.346 266.531 364.323 265.867 365.156 264.903C366.016 263.939 366.445 262.65 366.445 261.036C366.445 260.098 366.237 259.213 365.82 258.38C365.43 257.546 364.805 256.882 363.945 256.387C363.112 255.867 362.292 255.463 361.484 255.176C360.156 254.682 358.828 254.278 357.5 253.965C356.198 253.627 354.479 253.119 352.344 252.442C350.911 251.999 349.557 251.374 348.281 250.567C347.005 249.734 345.885 248.614 344.922 247.208C343.984 245.801 343.516 243.861 343.516 241.387C343.516 238.861 344.284 236.687 345.82 234.864C347.357 233.041 349.284 231.804 351.602 231.153C353.919 230.476 356.172 230.137 358.359 230.137C361.589 230.137 364.18 230.515 366.133 231.27C368.112 231.999 369.818 232.872 371.25 233.887C372.083 234.486 372.201 235.176 371.602 235.958L369.844 238.301C369.297 239.057 368.451 239.031 367.305 238.223C366.341 237.546 364.974 236.908 363.203 236.309C361.432 235.71 359.883 235.411 358.555 235.411C356.914 235.411 355.508 235.593 354.336 235.958C353.164 236.322 352.214 236.947 351.484 237.833C350.755 238.718 350.391 239.76 350.391 240.958C350.391 241.869 350.534 242.689 350.82 243.419C351.107 244.122 351.641 244.773 352.422 245.372C353.203 245.971 354.297 246.452 355.703 246.817C357.891 247.39 359.883 247.911 361.68 248.38C363.503 248.848 365.143 249.421 366.602 250.098C368.503 250.984 369.961 251.96 370.977 253.028C372.018 254.096 372.734 255.255 373.125 256.505C373.516 257.729 373.711 259.096 373.711 260.606C373.711 263.393 372.878 265.749 371.211 267.676C369.57 269.604 367.734 270.893 365.703 271.544C363.672 272.169 361.224 272.481 358.359 272.481C354.479 272.481 351.146 271.934 348.359 270.84C345.599 269.721 343.815 268.77 343.008 267.989Z"/>
</mask>
<path d="M3.55469 235.958C2.38281 235.958 1.79688 235.502 1.79688 234.59V232.169C1.79688 231.257 2.38281 230.801 3.55469 230.801H8.16406V227.286C8.16406 226.765 8.29427 226.27 8.55469 225.801L11.2891 220.84C11.7839 219.929 12.1875 219.473 12.5 219.473H13.8672C14.6484 219.473 15.0391 219.929 15.0391 220.84V230.801H23.3594C24.5312 230.801 25.1172 231.257 25.1172 232.169V234.59C25.1172 235.502 24.5312 235.958 23.3594 235.958H15.0391V260.84C15.0391 263.575 15.4427 265.359 16.25 266.192C17.0833 266.999 18.0729 267.403 19.2188 267.403C20.1042 267.403 21.1589 267.143 22.3828 266.622C23.6328 266.101 24.4922 265.658 24.9609 265.294C25.4297 264.929 25.7943 265.046 26.0547 265.645L27.3438 268.653C27.5521 269.174 27.3958 269.59 26.875 269.903C25.8594 270.502 24.375 271.088 22.4219 271.661C20.4688 272.208 18.5156 272.481 16.5625 272.481C13.8542 272.481 11.7708 271.505 10.3125 269.551C8.88021 267.598 8.16406 264.838 8.16406 261.27V235.958H3.55469ZM36.9141 271.817C35.7422 271.817 35.1562 271.231 35.1562 270.059V232.559C35.1562 231.387 35.7422 230.801 36.9141 230.801H40.1953C41.3672 230.801 41.9531 231.387 41.9531 232.559V237.247H42.1094C43.3594 234.903 44.8307 233.132 46.5234 231.934C48.2161 230.736 50.3255 230.137 52.8516 230.137C54.5182 230.137 55.6901 230.281 56.3672 230.567C56.9661 230.801 57.1875 231.192 57.0312 231.739L56.1328 234.942C56.0026 235.411 55.6641 235.593 55.1172 235.489C54.2057 235.307 53.3464 235.215 52.5391 235.215C49.4922 235.215 46.9792 236.596 45 239.356C43.0208 242.09 42.0312 245.827 42.0312 250.567V270.059C42.0312 271.231 41.4453 271.817 40.2734 271.817H36.9141ZM61.1328 251.309C61.1328 244.851 62.7474 239.708 65.9766 235.88C69.2057 232.051 73.8281 230.137 79.8438 230.137C84.8438 230.137 88.9844 231.895 92.2656 235.411C95.5729 238.9 97.2266 244.486 97.2266 252.169C97.2266 253.34 96.6927 253.926 95.625 253.926H68.3984C68.8411 258.952 70.1953 262.455 72.4609 264.434C74.7266 266.387 77.2917 267.364 80.1562 267.364C83.1771 267.364 85.4948 266.856 87.1094 265.84C88.724 264.825 89.9089 263.822 90.6641 262.833C91.4974 261.739 92.3047 261.531 93.0859 262.208L95.3906 264.2C95.9896 264.721 95.9896 265.437 95.3906 266.348C94.8958 267.104 93.4766 268.314 91.1328 269.981C88.8151 271.648 85.1562 272.481 80.1562 272.481C73.6458 272.481 68.8411 270.567 65.7422 266.739C62.6693 262.911 61.1328 257.768 61.1328 251.309ZM68.2422 248.848H90.3125C90.2083 245.202 89.2708 242.012 87.5 239.278C85.7292 236.518 83.125 235.137 79.6875 235.137C76.6667 235.137 74.1016 236.153 71.9922 238.184C69.8828 240.189 68.6328 243.744 68.2422 248.848ZM104.023 251.309C104.023 244.851 105.638 239.708 108.867 235.88C112.096 232.051 116.719 230.137 122.734 230.137C127.734 230.137 131.875 231.895 135.156 235.411C138.464 238.9 140.117 244.486 140.117 252.169C140.117 253.34 139.583 253.926 138.516 253.926H111.289C111.732 258.952 113.086 262.455 115.352 264.434C117.617 266.387 120.182 267.364 123.047 267.364C126.068 267.364 128.385 266.856 130 265.84C131.615 264.825 132.799 263.822 133.555 262.833C134.388 261.739 135.195 261.531 135.977 262.208L138.281 264.2C138.88 264.721 138.88 265.437 138.281 266.348C137.786 267.104 136.367 268.314 134.023 269.981C131.706 271.648 128.047 272.481 123.047 272.481C116.536 272.481 111.732 270.567 108.633 266.739C105.56 262.911 104.023 257.768 104.023 251.309ZM111.133 248.848H133.203C133.099 245.202 132.161 242.012 130.391 239.278C128.62 236.518 126.016 235.137 122.578 235.137C119.557 235.137 116.992 236.153 114.883 238.184C112.773 240.189 111.523 243.744 111.133 248.848ZM152.188 271.817C150.885 271.817 150.234 271.101 150.234 269.669V217.95C150.234 216.518 150.885 215.801 152.188 215.801H184.023C185.456 215.801 186.172 216.387 186.172 217.559V220.45C186.172 221.622 185.456 222.208 184.023 222.208H157.734V240.723H180.664C182.096 240.723 182.812 241.309 182.812 242.481V245.372C182.812 246.544 182.096 247.13 180.664 247.13H157.734V269.669C157.734 271.101 157.083 271.817 155.781 271.817H152.188ZM192.461 251.309C192.461 244.851 194.076 239.708 197.305 235.88C200.534 232.051 205.156 230.137 211.172 230.137C216.172 230.137 220.312 231.895 223.594 235.411C226.901 238.9 228.555 244.486 228.555 252.169C228.555 253.34 228.021 253.926 226.953 253.926H199.727C200.169 258.952 201.523 262.455 203.789 264.434C206.055 266.387 208.62 267.364 211.484 267.364C214.505 267.364 216.823 266.856 218.438 265.84C220.052 264.825 221.237 263.822 221.992 262.833C222.826 261.739 223.633 261.531 224.414 262.208L226.719 264.2C227.318 264.721 227.318 265.437 226.719 266.348C226.224 267.104 224.805 268.314 222.461 269.981C220.143 271.648 216.484 272.481 211.484 272.481C204.974 272.481 200.169 270.567 197.07 266.739C193.997 262.911 192.461 257.768 192.461 251.309ZM199.57 248.848H221.641C221.536 245.202 220.599 242.012 218.828 239.278C217.057 236.518 214.453 235.137 211.016 235.137C207.995 235.137 205.43 236.153 203.32 238.184C201.211 240.189 199.961 243.744 199.57 248.848ZM239.336 271.817C238.164 271.817 237.578 271.231 237.578 270.059V221.309C237.578 220.788 237.708 220.294 237.969 219.825L240.703 214.864C241.198 213.952 241.602 213.497 241.914 213.497H243.281C244.062 213.497 244.453 213.952 244.453 214.864V270.059C244.453 271.231 243.867 271.817 242.695 271.817H239.336ZM257.305 271.817C256.133 271.817 255.547 271.231 255.547 270.059V221.309C255.547 220.788 255.677 220.294 255.938 219.825L258.672 214.864C259.167 213.952 259.57 213.497 259.883 213.497H261.25C262.031 213.497 262.422 213.952 262.422 214.864V270.059C262.422 271.231 261.836 271.817 260.664 271.817H257.305ZM271.289 251.309C271.289 244.851 272.904 239.708 276.133 235.88C279.362 232.051 283.984 230.137 290 230.137C295 230.137 299.141 231.895 302.422 235.411C305.729 238.9 307.383 244.486 307.383 252.169C307.383 253.34 306.849 253.926 305.781 253.926H278.555C278.997 258.952 280.352 262.455 282.617 264.434C284.883 266.387 287.448 267.364 290.312 267.364C293.333 267.364 295.651 266.856 297.266 265.84C298.88 264.825 300.065 263.822 300.82 262.833C301.654 261.739 302.461 261.531 303.242 262.208L305.547 264.2C306.146 264.721 306.146 265.437 305.547 266.348C305.052 267.104 303.633 268.314 301.289 269.981C298.971 271.648 295.312 272.481 290.312 272.481C283.802 272.481 278.997 270.567 275.898 266.739C272.826 262.911 271.289 257.768 271.289 251.309ZM278.398 248.848H300.469C300.365 245.202 299.427 242.012 297.656 239.278C295.885 236.518 293.281 235.137 289.844 235.137C286.823 235.137 284.258 236.153 282.148 238.184C280.039 240.189 278.789 243.744 278.398 248.848ZM318.164 271.817C316.992 271.817 316.406 271.231 316.406 270.059V232.559C316.406 231.387 316.992 230.801 318.164 230.801H321.445C322.617 230.801 323.203 231.387 323.203 232.559V237.247H323.359C324.609 234.903 326.081 233.132 327.773 231.934C329.466 230.736 331.576 230.137 334.102 230.137C335.768 230.137 336.94 230.281 337.617 230.567C338.216 230.801 338.438 231.192 338.281 231.739L337.383 234.942C337.253 235.411 336.914 235.593 336.367 235.489C335.456 235.307 334.596 235.215 333.789 235.215C330.742 235.215 328.229 236.596 326.25 239.356C324.271 242.09 323.281 245.827 323.281 250.567V270.059C323.281 271.231 322.695 271.817 321.523 271.817H318.164ZM343.008 267.989C342.201 267.234 342.031 266.531 342.5 265.88L344.258 263.419C344.831 262.637 345.677 262.676 346.797 263.536C348.333 264.708 350.039 265.645 351.914 266.348C353.815 267.051 355.977 267.403 358.398 267.403C359.831 267.403 361.107 267.234 362.227 266.895C363.346 266.531 364.323 265.867 365.156 264.903C366.016 263.939 366.445 262.65 366.445 261.036C366.445 260.098 366.237 259.213 365.82 258.38C365.43 257.546 364.805 256.882 363.945 256.387C363.112 255.867 362.292 255.463 361.484 255.176C360.156 254.682 358.828 254.278 357.5 253.965C356.198 253.627 354.479 253.119 352.344 252.442C350.911 251.999 349.557 251.374 348.281 250.567C347.005 249.734 345.885 248.614 344.922 247.208C343.984 245.801 343.516 243.861 343.516 241.387C343.516 238.861 344.284 236.687 345.82 234.864C347.357 233.041 349.284 231.804 351.602 231.153C353.919 230.476 356.172 230.137 358.359 230.137C361.589 230.137 364.18 230.515 366.133 231.27C368.112 231.999 369.818 232.872 371.25 233.887C372.083 234.486 372.201 235.176 371.602 235.958L369.844 238.301C369.297 239.057 368.451 239.031 367.305 238.223C366.341 237.546 364.974 236.908 363.203 236.309C361.432 235.71 359.883 235.411 358.555 235.411C356.914 235.411 355.508 235.593 354.336 235.958C353.164 236.322 352.214 236.947 351.484 237.833C350.755 238.718 350.391 239.76 350.391 240.958C350.391 241.869 350.534 242.689 350.82 243.419C351.107 244.122 351.641 244.773 352.422 245.372C353.203 245.971 354.297 246.452 355.703 246.817C357.891 247.39 359.883 247.911 361.68 248.38C363.503 248.848 365.143 249.421 366.602 250.098C368.503 250.984 369.961 251.96 370.977 253.028C372.018 254.096 372.734 255.255 373.125 256.505C373.516 257.729 373.711 259.096 373.711 260.606C373.711 263.393 372.878 265.749 371.211 267.676C369.57 269.604 367.734 270.893 365.703 271.544C363.672 272.169 361.224 272.481 358.359 272.481C354.479 272.481 351.146 271.934 348.359 270.84C345.599 269.721 343.815 268.77 343.008 267.989Z" fill="#0E15DD"/>
<path d="M8.16406 230.801V234.801H12.1641V230.801H8.16406ZM8.55469 225.801L12.0513 227.744L12.0578 227.732L8.55469 225.801ZM11.2891 220.84L14.7922 222.771L14.7984 222.76L14.8045 222.749L11.2891 220.84ZM15.0391 230.801H11.0391V234.801H15.0391V230.801ZM15.0391 235.958V231.958H11.0391V235.958H15.0391ZM16.25 266.192L13.377 268.975L13.4212 269.021L13.4668 269.065L16.25 266.192ZM22.3828 266.622L20.8444 262.929L20.8304 262.935L20.8166 262.941L22.3828 266.622ZM26.0547 265.645L29.7313 264.069L29.7271 264.06L29.723 264.05L26.0547 265.645ZM27.3438 268.653L31.0577 267.167L31.0395 267.122L31.0203 267.077L27.3438 268.653ZM26.875 269.903L28.9069 273.348L28.92 273.341L28.933 273.333L26.875 269.903ZM22.4219 271.661L23.5004 275.513L23.5241 275.506L23.5478 275.499L22.4219 271.661ZM10.3125 269.551L7.08688 271.917L7.09707 271.931L7.10738 271.945L10.3125 269.551ZM8.16406 235.958H12.1641V231.958H8.16406V235.958ZM3.55469 231.958C3.37687 231.958 3.97952 231.904 4.69209 232.458C5.08087 232.761 5.39051 233.163 5.58332 233.613C5.76581 234.039 5.79688 234.396 5.79688 234.59H-2.20312C-2.20312 235.969 -1.70893 237.615 -0.219434 238.773C1.07908 239.783 2.56063 239.958 3.55469 239.958V231.958ZM5.79688 234.59V232.169H-2.20312V234.59H5.79688ZM5.79688 232.169C5.79688 232.363 5.76581 232.72 5.58332 233.146C5.39051 233.596 5.08087 233.998 4.69209 234.301C3.97952 234.855 3.37687 234.801 3.55469 234.801V226.801C2.56063 226.801 1.07908 226.976 -0.219434 227.986C-1.70893 229.144 -2.20312 230.79 -2.20312 232.169H5.79688ZM3.55469 234.801H8.16406V226.801H3.55469V234.801ZM12.1641 230.801V227.286H4.16406V230.801H12.1641ZM12.1641 227.286C12.1641 227.363 12.1539 227.451 12.13 227.542C12.1063 227.632 12.0753 227.701 12.0513 227.744L5.05806 223.859C4.47769 224.904 4.16406 226.065 4.16406 227.286H12.1641ZM12.0578 227.732L14.7922 222.771L7.78595 218.91L5.05157 223.871L12.0578 227.732ZM14.8045 222.749C14.993 222.402 15.0488 222.364 14.9572 222.467C14.9084 222.522 14.7248 222.724 14.396 222.933C14.0665 223.143 13.4094 223.473 12.5 223.473V215.473C10.4948 215.473 9.28509 216.806 8.96854 217.163C8.47334 217.722 8.07992 218.368 7.77365 218.932L14.8045 222.749ZM12.5 223.473H13.8672V215.473H12.5V223.473ZM13.8672 223.473C13.4664 223.473 12.4885 223.328 11.7091 222.418C11.0308 221.627 11.0391 220.863 11.0391 220.84H19.0391C19.0391 219.906 18.852 218.459 17.7831 217.212C16.6131 215.847 15.0492 215.473 13.8672 215.473V223.473ZM11.0391 220.84V230.801H19.0391V220.84H11.0391ZM15.0391 234.801H23.3594V226.801H15.0391V234.801ZM23.3594 234.801C23.5372 234.801 22.9345 234.855 22.222 234.301C21.8332 233.998 21.5235 233.596 21.3307 233.146C21.1483 232.72 21.1172 232.363 21.1172 232.169H29.1172C29.1172 230.79 28.623 229.144 27.1335 227.986C25.835 226.976 24.3534 226.801 23.3594 226.801V234.801ZM21.1172 232.169V234.59H29.1172V232.169H21.1172ZM21.1172 234.59C21.1172 234.396 21.1483 234.039 21.3307 233.613C21.5235 233.163 21.8332 232.761 22.222 232.458C22.9345 231.904 23.5372 231.958 23.3594 231.958V239.958C24.3534 239.958 25.835 239.783 27.1335 238.773C28.623 237.615 29.1172 235.969 29.1172 234.59H21.1172ZM23.3594 231.958H15.0391V239.958H23.3594V231.958ZM11.0391 235.958V260.84H19.0391V235.958H11.0391ZM11.0391 260.84C11.0391 262.374 11.1494 263.826 11.4404 265.112C11.7191 266.343 12.2483 267.81 13.377 268.975L19.123 263.409C19.4444 263.741 19.3681 263.899 19.2432 263.346C19.1305 262.849 19.0391 262.041 19.0391 260.84H11.0391ZM13.4668 269.065C15.0358 270.585 17.0195 271.403 19.2188 271.403V263.403C19.1681 263.403 19.1407 263.399 19.1316 263.397C19.1231 263.395 19.1235 263.395 19.1279 263.397C19.1323 263.398 19.1295 263.398 19.1176 263.39C19.1051 263.382 19.0765 263.361 19.0332 263.319L13.4668 269.065ZM19.2188 271.403C20.8427 271.403 22.4552 270.938 23.949 270.302L20.8166 262.941C19.8625 263.347 19.3656 263.403 19.2188 263.403V271.403ZM23.9213 270.314C25.1896 269.786 26.4888 269.173 27.4167 268.451L22.5052 262.136C22.5487 262.102 22.4612 262.174 22.133 262.343C21.8286 262.5 21.4058 262.695 20.8444 262.929L23.9213 270.314ZM27.4167 268.451C27.205 268.616 26.0191 269.449 24.3619 268.916C22.8811 268.44 22.4059 267.285 22.3864 267.24L29.723 264.05C29.4431 263.407 28.6554 261.893 26.81 261.3C24.7882 260.65 23.1856 261.607 22.5052 262.136L27.4167 268.451ZM22.3781 267.221L23.6672 270.229L31.0203 267.077L29.7313 264.069L22.3781 267.221ZM23.6298 270.139C23.4639 269.724 23.2811 268.902 23.6375 267.952C23.9752 267.051 24.5828 266.614 24.817 266.473L28.933 273.333C29.688 272.88 30.6342 272.078 31.1281 270.761C31.6408 269.393 31.4319 268.103 31.0577 267.167L23.6298 270.139ZM24.8431 266.458C24.245 266.81 23.1256 267.286 21.296 267.823L23.5478 275.499C25.6244 274.89 27.4738 274.194 28.9069 273.348L24.8431 266.458ZM21.3434 267.809C19.7277 268.261 18.1372 268.481 16.5625 268.481V276.481C18.894 276.481 21.2098 276.154 23.5004 275.513L21.3434 267.809ZM16.5625 268.481C14.9547 268.481 14.1292 267.977 13.5176 267.158L7.10738 271.945C9.41245 275.032 12.7536 276.481 16.5625 276.481V268.481ZM13.5381 267.186C12.7965 266.175 12.1641 264.371 12.1641 261.27H4.16406C4.16406 265.304 4.96389 269.022 7.08688 271.917L13.5381 267.186ZM12.1641 261.27V235.958H4.16406V261.27H12.1641ZM8.16406 231.958H3.55469V239.958H8.16406V231.958ZM41.9531 237.247H37.9531V241.247H41.9531V237.247ZM42.1094 237.247V241.247H44.5094L45.6388 239.129L42.1094 237.247ZM46.5234 231.934L48.8341 235.199L46.5234 231.934ZM56.3672 230.567L54.8086 234.251L54.8588 234.272L54.9096 234.292L56.3672 230.567ZM57.0312 231.739L53.1852 230.64L53.1825 230.649L53.1799 230.659L57.0312 231.739ZM56.1328 234.942L52.2814 233.862L52.2787 233.871L56.1328 234.942ZM55.1172 235.489L54.3327 239.411L54.3507 239.415L54.3687 239.418L55.1172 235.489ZM45 239.356L48.2403 241.701L48.2455 241.694L48.2508 241.687L45 239.356ZM36.9141 267.817C36.9447 267.817 37.7024 267.827 38.4241 268.549C39.1459 269.271 39.1562 270.029 39.1562 270.059H31.1562C31.1562 271.262 31.4596 272.898 32.7673 274.206C34.075 275.514 35.7115 275.817 36.9141 275.817V267.817ZM39.1562 270.059V232.559H31.1562V270.059H39.1562ZM39.1562 232.559C39.1562 232.59 39.1459 233.348 38.4241 234.069C37.7024 234.791 36.9447 234.801 36.9141 234.801V226.801C35.7115 226.801 34.075 227.105 32.7673 228.412C31.4596 229.72 31.1562 231.357 31.1562 232.559H39.1562ZM36.9141 234.801H40.1953V226.801H36.9141V234.801ZM40.1953 234.801C40.1647 234.801 39.407 234.791 38.6852 234.069C37.9635 233.348 37.9531 232.59 37.9531 232.559H45.9531C45.9531 231.357 45.6498 229.72 44.3421 228.412C43.0344 227.105 41.3978 226.801 40.1953 226.801V234.801ZM37.9531 232.559V237.247H45.9531V232.559H37.9531ZM41.9531 241.247H42.1094V233.247H41.9531V241.247ZM45.6388 239.129C46.6755 237.185 47.7721 235.951 48.8341 235.199L44.2128 228.669C41.8893 230.313 40.0432 232.621 38.58 235.364L45.6388 239.129ZM48.8341 235.199C49.7154 234.576 50.9697 234.137 52.8516 234.137V226.137C49.6814 226.137 46.7169 226.897 44.2128 228.669L48.8341 235.199ZM52.8516 234.137C53.583 234.137 54.1207 234.169 54.4952 234.215C54.9062 234.265 54.9556 234.313 54.8086 234.251L57.9257 226.883C56.4386 226.254 54.5443 226.137 52.8516 226.137V234.137ZM54.9096 234.292C54.7151 234.216 54.0047 233.894 53.5023 233.008C52.952 232.037 53.0515 231.108 53.1852 230.64L60.8773 232.838C61.1673 231.823 61.2342 230.426 60.4625 229.064C59.7388 227.787 58.6182 227.153 57.8248 226.842L54.9096 234.292ZM53.1799 230.659L52.2814 233.862L59.9842 236.022L60.8826 232.819L53.1799 230.659ZM52.2787 233.871C52.4233 233.351 52.8554 232.463 53.8849 231.908C54.8177 231.406 55.63 231.515 55.8656 231.56L54.3687 239.418C55.1512 239.567 56.4063 239.637 57.6776 238.952C59.0457 238.216 59.7121 237.002 59.9869 236.013L52.2787 233.871ZM55.9017 231.567C54.7698 231.34 53.6458 231.215 52.5391 231.215V239.215C53.0469 239.215 53.6417 239.273 54.3327 239.411L55.9017 231.567ZM52.5391 231.215C48.0404 231.215 44.3797 233.357 41.7492 237.025L48.2508 241.687C49.5787 239.835 50.944 239.215 52.5391 239.215V231.215ZM41.7597 237.011C39.123 240.654 38.0312 245.316 38.0312 250.567H46.0312C46.0312 246.339 46.9187 243.527 48.2403 241.701L41.7597 237.011ZM38.0312 250.567V270.059H46.0312V250.567H38.0312ZM38.0312 270.059C38.0312 270.029 38.0416 269.271 38.7634 268.549C39.4851 267.827 40.2428 267.817 40.2734 267.817V275.817C41.476 275.817 43.1125 275.514 44.4202 274.206C45.7279 272.898 46.0312 271.262 46.0312 270.059H38.0312ZM40.2734 267.817H36.9141V275.817H40.2734V267.817ZM65.9766 235.88L62.9191 233.3L65.9766 235.88ZM92.2656 235.411L89.3414 238.14L89.3519 238.151L89.3624 238.162L92.2656 235.411ZM68.3984 253.926V249.926H64.0306L64.4139 254.277L68.3984 253.926ZM72.4609 264.434L69.8294 267.447L69.8392 267.455L69.8492 267.464L72.4609 264.434ZM90.6641 262.833L93.8439 265.259L93.8458 265.257L90.6641 262.833ZM93.0859 262.208L90.4662 265.23L90.4701 265.234L93.0859 262.208ZM95.3906 264.2L98.0154 261.181L98.0064 261.174L95.3906 264.2ZM95.3906 266.348L92.0478 264.152L92.0448 264.156L95.3906 266.348ZM91.1328 269.981L88.8147 266.721L88.8061 266.727L88.7975 266.734L91.1328 269.981ZM65.7422 266.739L62.6229 269.243L62.628 269.249L62.6332 269.256L65.7422 266.739ZM68.2422 248.848L64.2539 248.543L63.9244 252.848H68.2422V248.848ZM90.3125 248.848V252.848H94.4284L94.3109 248.734L90.3125 248.848ZM87.5 239.278L84.1332 241.438L84.1379 241.445L84.1426 241.452L87.5 239.278ZM71.9922 238.184L74.7481 241.083L74.7575 241.074L74.7668 241.066L71.9922 238.184ZM65.1328 251.309C65.1328 245.516 66.5719 241.378 69.034 238.459L62.9191 233.3C58.9229 238.038 57.1328 244.186 57.1328 251.309H65.1328ZM69.034 238.459C71.3496 235.714 74.7459 234.137 79.8438 234.137V226.137C72.9103 226.137 67.0618 228.389 62.9191 233.3L69.034 238.459ZM79.8438 234.137C83.7847 234.137 86.8499 235.471 89.3414 238.14L95.1898 232.682C91.1188 228.32 85.9028 226.137 79.8438 226.137V234.137ZM89.3624 238.162C91.6461 240.572 93.2266 244.925 93.2266 252.169H101.227C101.227 244.047 99.4997 237.229 95.1689 232.659L89.3624 238.162ZM93.2266 252.169C93.2266 252.165 93.2267 252.128 93.235 252.064C93.2433 252 93.2609 251.901 93.2991 251.775C93.3778 251.516 93.5435 251.151 93.8694 250.793C94.5974 249.994 95.4414 249.926 95.625 249.926V257.926C96.8763 257.926 98.5211 257.566 99.783 256.181C100.981 254.867 101.227 253.284 101.227 252.169H93.2266ZM95.625 249.926H68.3984V257.926H95.625V249.926ZM64.4139 254.277C64.8897 259.679 66.4032 264.454 69.8294 267.447L75.0925 261.422C73.9875 260.456 72.7926 258.226 72.383 253.575L64.4139 254.277ZM69.8492 267.464C72.806 270.013 76.2877 271.364 80.1562 271.364V263.364C78.2956 263.364 76.6472 262.762 75.0727 261.405L69.8492 267.464ZM80.1562 271.364C83.5291 271.364 86.7157 270.814 89.2392 269.226L84.9796 262.455C84.2739 262.899 82.825 263.364 80.1562 263.364V271.364ZM89.2392 269.226C91.0659 268.077 92.6871 266.775 93.8439 265.259L87.4843 260.406C87.1306 260.869 86.382 261.572 84.9796 262.455L89.2392 269.226ZM93.8458 265.257C94.0432 264.998 93.7657 265.504 92.894 265.729C92.4001 265.857 91.8636 265.85 91.363 265.702C90.8948 265.564 90.5987 265.345 90.4662 265.23L95.7057 259.185C94.5909 258.219 92.8814 257.47 90.895 257.983C89.216 258.416 88.1183 259.574 87.4823 260.408L93.8458 265.257ZM90.4701 265.234L92.7748 267.226L98.0064 261.174L95.7018 259.182L90.4701 265.234ZM92.7659 267.218C92.5704 267.048 92.3218 266.772 92.1274 266.37C91.9279 265.958 91.8398 265.526 91.8398 265.128C91.8398 264.396 92.1274 264.031 92.0478 264.152L98.7334 268.545C99.2529 267.755 99.8398 266.575 99.8398 265.128C99.8398 263.478 99.0823 262.109 98.0153 261.181L92.7659 267.218ZM92.0448 264.156C92.1269 264.031 92.0187 264.217 91.3588 264.78C90.7728 265.28 89.936 265.924 88.8147 266.721L93.4509 273.241C94.6734 272.372 95.7181 271.577 96.5513 270.866C97.3107 270.218 98.1596 269.421 98.7365 268.54L92.0448 264.156ZM88.7975 266.734C87.5046 267.663 84.8764 268.481 80.1562 268.481V276.481C85.4361 276.481 90.1256 275.632 93.4681 273.229L88.7975 266.734ZM80.1562 268.481C74.4359 268.481 70.9623 266.83 68.8512 264.222L62.6332 269.256C66.72 274.304 72.8557 276.481 80.1562 276.481V268.481ZM68.8615 264.235C66.5165 261.314 65.1328 257.146 65.1328 251.309H57.1328C57.1328 258.389 58.822 264.508 62.6229 269.243L68.8615 264.235ZM68.2422 252.848H90.3125V244.848H68.2422V252.848ZM94.3109 248.734C94.1883 244.446 93.0728 240.524 90.8574 237.104L84.1426 241.452C85.4689 243.5 86.2283 245.959 86.3141 248.963L94.3109 248.734ZM90.8668 237.118C88.3186 233.146 84.4084 231.137 79.6875 231.137V239.137C81.8416 239.137 83.1397 239.889 84.1332 241.438L90.8668 237.118ZM79.6875 231.137C75.6682 231.137 72.0981 232.529 69.2176 235.303L74.7668 241.066C76.105 239.777 77.6651 239.137 79.6875 239.137V231.137ZM69.2362 235.285C66.0332 238.33 64.6679 243.133 64.2539 248.543L72.2305 249.154C72.5978 244.355 73.7324 242.049 74.7481 241.083L69.2362 235.285ZM108.867 235.88L105.81 233.3L108.867 235.88ZM135.156 235.411L132.232 238.14L132.242 238.151L132.253 238.162L135.156 235.411ZM111.289 253.926V249.926H106.921L107.304 254.277L111.289 253.926ZM115.352 264.434L112.72 267.447L112.73 267.455L112.74 267.464L115.352 264.434ZM133.555 262.833L136.734 265.259L136.736 265.257L133.555 262.833ZM135.977 262.208L133.357 265.23L133.361 265.234L135.977 262.208ZM138.281 264.2L140.906 261.181L140.897 261.174L138.281 264.2ZM138.281 266.348L134.938 264.152L134.935 264.156L138.281 266.348ZM134.023 269.981L131.705 266.721L131.697 266.727L131.688 266.734L134.023 269.981ZM108.633 266.739L105.513 269.243L105.519 269.249L105.524 269.256L108.633 266.739ZM111.133 248.848L107.144 248.543L106.815 252.848H111.133V248.848ZM133.203 248.848V252.848H137.319L137.201 248.734L133.203 248.848ZM130.391 239.278L127.024 241.438L127.029 241.445L127.033 241.452L130.391 239.278ZM114.883 238.184L117.639 241.083L117.648 241.074L117.657 241.066L114.883 238.184ZM108.023 251.309C108.023 245.516 109.463 241.378 111.925 238.459L105.81 233.3C101.814 238.038 100.023 244.186 100.023 251.309H108.023ZM111.925 238.459C114.24 235.714 117.637 234.137 122.734 234.137V226.137C115.801 226.137 109.952 228.389 105.81 233.3L111.925 238.459ZM122.734 234.137C126.675 234.137 129.741 235.471 132.232 238.14L138.08 232.682C134.009 228.32 128.793 226.137 122.734 226.137V234.137ZM132.253 238.162C134.537 240.572 136.117 244.925 136.117 252.169H144.117C144.117 244.047 142.39 237.229 138.059 232.659L132.253 238.162ZM136.117 252.169C136.117 252.165 136.117 252.128 136.126 252.064C136.134 252 136.152 251.901 136.19 251.775C136.268 251.516 136.434 251.151 136.76 250.793C137.488 249.994 138.332 249.926 138.516 249.926V257.926C139.767 257.926 141.412 257.566 142.674 256.181C143.871 254.867 144.117 253.284 144.117 252.169H136.117ZM138.516 249.926H111.289V257.926H138.516V249.926ZM107.304 254.277C107.78 259.679 109.294 264.454 112.72 267.447L117.983 261.422C116.878 260.456 115.683 258.226 115.274 253.575L107.304 254.277ZM112.74 267.464C115.697 270.013 119.178 271.364 123.047 271.364V263.364C121.186 263.364 119.538 262.762 117.963 261.405L112.74 267.464ZM123.047 271.364C126.42 271.364 129.606 270.814 132.13 269.226L127.87 262.455C127.164 262.899 125.716 263.364 123.047 263.364V271.364ZM132.13 269.226C133.957 268.077 135.578 266.775 136.734 265.259L130.375 260.406C130.021 260.869 129.273 261.572 127.87 262.455L132.13 269.226ZM136.736 265.257C136.934 264.998 136.656 265.504 135.785 265.729C135.291 265.857 134.754 265.85 134.254 265.702C133.785 265.564 133.489 265.345 133.357 265.23L138.596 259.185C137.481 258.219 135.772 257.47 133.786 257.983C132.107 258.416 131.009 259.574 130.373 260.408L136.736 265.257ZM133.361 265.234L135.665 267.226L140.897 261.174L138.592 259.182L133.361 265.234ZM135.657 267.218C135.461 267.048 135.212 266.772 135.018 266.37C134.819 265.958 134.73 265.526 134.73 265.128C134.73 264.396 135.018 264.031 134.938 264.152L141.624 268.545C142.143 267.755 142.73 266.575 142.73 265.128C142.73 263.478 141.973 262.109 140.906 261.181L135.657 267.218ZM134.935 264.156C135.018 264.031 134.909 264.217 134.249 264.78C133.663 265.28 132.827 265.924 131.705 266.721L136.342 273.241C137.564 272.372 138.609 271.577 139.442 270.866C140.201 270.218 141.05 269.421 141.627 268.54L134.935 264.156ZM131.688 266.734C130.395 267.663 127.767 268.481 123.047 268.481V276.481C128.327 276.481 133.016 275.632 136.359 273.229L131.688 266.734ZM123.047 268.481C117.327 268.481 113.853 266.83 111.742 264.222L105.524 269.256C109.611 274.304 115.746 276.481 123.047 276.481V268.481ZM111.752 264.235C109.407 261.314 108.023 257.146 108.023 251.309H100.023C100.023 258.389 101.713 264.508 105.513 269.243L111.752 264.235ZM111.133 252.848H133.203V244.848H111.133V252.848ZM137.201 248.734C137.079 244.446 135.963 240.524 133.748 237.104L127.033 241.452C128.36 243.5 129.119 245.959 129.205 248.963L137.201 248.734ZM133.757 237.118C131.209 233.146 127.299 231.137 122.578 231.137V239.137C124.732 239.137 126.03 239.889 127.024 241.438L133.757 237.118ZM122.578 231.137C118.559 231.137 114.989 232.529 112.108 235.303L117.657 241.066C118.996 239.777 120.556 239.137 122.578 239.137V231.137ZM112.127 235.285C108.924 238.33 107.558 243.133 107.144 248.543L115.121 249.154C115.488 244.355 116.623 242.049 117.639 241.083L112.127 235.285ZM157.734 222.208V218.208H153.734V222.208H157.734ZM157.734 240.723H153.734V244.723H157.734V240.723ZM157.734 247.13V243.13H153.734V247.13H157.734ZM152.188 267.817C152.256 267.817 153.014 267.854 153.682 268.589C154.285 269.253 154.234 269.857 154.234 269.669H146.234C146.234 270.912 146.509 272.591 147.763 273.971C149.083 275.422 150.816 275.817 152.188 275.817V267.817ZM154.234 269.669V217.95H146.234V269.669H154.234ZM154.234 217.95C154.234 217.761 154.285 218.366 153.682 219.029C153.014 219.765 152.256 219.801 152.188 219.801V211.801C150.816 211.801 149.083 212.196 147.763 213.648C146.509 215.027 146.234 216.706 146.234 217.95H154.234ZM152.188 219.801H184.023V211.801H152.188V219.801ZM184.023 219.801C184.296 219.801 183.758 219.873 183.102 219.337C182.75 219.049 182.489 218.681 182.333 218.299C182.188 217.942 182.172 217.666 182.172 217.559H190.172C190.172 216.121 189.694 214.393 188.168 213.145C186.796 212.022 185.183 211.801 184.023 211.801V219.801ZM182.172 217.559V220.45H190.172V217.559H182.172ZM182.172 220.45C182.172 220.343 182.188 220.067 182.333 219.71C182.489 219.328 182.75 218.96 183.102 218.672C183.758 218.136 184.296 218.208 184.023 218.208V226.208C185.183 226.208 186.796 225.987 188.168 224.864C189.694 223.616 190.172 221.888 190.172 220.45H182.172ZM184.023 218.208H157.734V226.208H184.023V218.208ZM153.734 222.208V240.723H161.734V222.208H153.734ZM157.734 244.723H180.664V236.723H157.734V244.723ZM180.664 244.723C180.937 244.723 180.398 244.795 179.742 244.259C179.391 243.971 179.13 243.603 178.974 243.221C178.828 242.864 178.812 242.588 178.812 242.481H186.812C186.812 241.043 186.334 239.315 184.808 238.067C183.436 236.944 181.824 236.723 180.664 236.723V244.723ZM178.812 242.481V245.372H186.812V242.481H178.812ZM178.812 245.372C178.812 245.265 178.828 244.989 178.974 244.632C179.13 244.249 179.391 243.882 179.742 243.594C180.398 243.058 180.937 243.13 180.664 243.13V251.13C181.824 251.13 183.436 250.909 184.808 249.786C186.334 248.538 186.812 246.81 186.812 245.372H178.812ZM180.664 243.13H157.734V251.13H180.664V243.13ZM153.734 247.13V269.669H161.734V247.13H153.734ZM153.734 269.669C153.734 269.857 153.683 269.253 154.286 268.589C154.955 267.854 155.712 267.817 155.781 267.817V275.817C157.152 275.817 158.886 275.422 160.206 273.971C161.46 272.591 161.734 270.912 161.734 269.669H153.734ZM155.781 267.817H152.188V275.817H155.781V267.817ZM197.305 235.88L194.247 233.3L197.305 235.88ZM223.594 235.411L220.67 238.14L220.68 238.151L220.691 238.162L223.594 235.411ZM199.727 253.926V249.926H195.359L195.742 254.277L199.727 253.926ZM203.789 264.434L201.157 267.447L201.167 267.455L201.177 267.464L203.789 264.434ZM221.992 262.833L225.172 265.259L225.174 265.257L221.992 262.833ZM224.414 262.208L221.794 265.23L221.798 265.234L224.414 262.208ZM226.719 264.2L229.343 261.181L229.335 261.174L226.719 264.2ZM226.719 266.348L223.376 264.152L223.373 264.156L226.719 266.348ZM222.461 269.981L220.143 266.721L220.134 266.727L220.126 266.734L222.461 269.981ZM197.07 266.739L193.951 269.243L193.956 269.249L193.961 269.256L197.07 266.739ZM199.57 248.848L195.582 248.543L195.252 252.848H199.57V248.848ZM221.641 248.848V252.848H225.757L225.639 248.734L221.641 248.848ZM218.828 239.278L215.461 241.438L215.466 241.445L215.471 241.452L218.828 239.278ZM203.32 238.184L206.076 241.083L206.086 241.074L206.095 241.066L203.32 238.184ZM196.461 251.309C196.461 245.516 197.9 241.378 200.362 238.459L194.247 233.3C190.251 238.038 188.461 244.186 188.461 251.309H196.461ZM200.362 238.459C202.678 235.714 206.074 234.137 211.172 234.137V226.137C204.238 226.137 198.39 228.389 194.247 233.3L200.362 238.459ZM211.172 234.137C215.113 234.137 218.178 235.471 220.67 238.14L226.518 232.682C222.447 228.32 217.231 226.137 211.172 226.137V234.137ZM220.691 238.162C222.974 240.572 224.555 244.925 224.555 252.169H232.555C232.555 244.047 230.828 237.229 226.497 232.659L220.691 238.162ZM224.555 252.169C224.555 252.165 224.555 252.128 224.563 252.064C224.571 252 224.589 251.901 224.627 251.775C224.706 251.516 224.872 251.151 225.198 250.793C225.926 249.994 226.77 249.926 226.953 249.926V257.926C228.204 257.926 229.849 257.566 231.111 256.181C232.309 254.867 232.555 253.284 232.555 252.169H224.555ZM226.953 249.926H199.727V257.926H226.953V249.926ZM195.742 254.277C196.218 259.679 197.731 264.454 201.157 267.447L206.421 261.422C205.316 260.456 204.121 258.226 203.711 253.575L195.742 254.277ZM201.177 267.464C204.134 270.013 207.616 271.364 211.484 271.364V263.364C209.624 263.364 207.975 262.762 206.401 261.405L201.177 267.464ZM211.484 271.364C214.857 271.364 218.044 270.814 220.567 269.226L216.308 262.455C215.602 262.899 214.153 263.364 211.484 263.364V271.364ZM220.567 269.226C222.394 268.077 224.015 266.775 225.172 265.259L218.812 260.406C218.459 260.869 217.71 261.572 216.308 262.455L220.567 269.226ZM225.174 265.257C225.371 264.998 225.094 265.504 224.222 265.729C223.728 265.857 223.192 265.85 222.691 265.702C222.223 265.564 221.927 265.345 221.794 265.23L227.034 259.185C225.919 258.219 224.21 257.47 222.223 257.983C220.544 258.416 219.446 259.574 218.81 260.408L225.174 265.257ZM221.798 265.234L224.103 267.226L229.335 261.174L227.03 259.182L221.798 265.234ZM224.094 267.218C223.899 267.048 223.65 266.772 223.456 266.37C223.256 265.958 223.168 265.526 223.168 265.128C223.168 264.396 223.455 264.031 223.376 264.152L230.062 268.545C230.581 267.755 231.168 266.575 231.168 265.128C231.168 263.478 230.41 262.109 229.343 261.181L224.094 267.218ZM223.373 264.156C223.455 264.031 223.347 264.217 222.687 264.78C222.101 265.28 221.264 265.924 220.143 266.721L224.779 273.241C226.002 272.372 227.046 271.577 227.879 270.866C228.639 270.218 229.488 269.421 230.065 268.54L223.373 264.156ZM220.126 266.734C218.833 267.663 216.205 268.481 211.484 268.481V276.481C216.764 276.481 221.454 275.632 224.796 273.229L220.126 266.734ZM211.484 268.481C205.764 268.481 202.29 266.83 200.179 264.222L193.961 269.256C198.048 274.304 204.184 276.481 211.484 276.481V268.481ZM200.19 264.235C197.845 261.314 196.461 257.146 196.461 251.309H188.461C188.461 258.389 190.15 264.508 193.951 269.243L200.19 264.235ZM199.57 252.848H221.641V244.848H199.57V252.848ZM225.639 248.734C225.516 244.446 224.401 240.524 222.186 237.104L215.471 241.452C216.797 243.5 217.556 245.959 217.642 248.963L225.639 248.734ZM222.195 237.118C219.647 233.146 215.737 231.137 211.016 231.137V239.137C213.17 239.137 214.468 239.889 215.461 241.438L222.195 237.118ZM211.016 231.137C206.996 231.137 203.426 232.529 200.546 235.303L206.095 241.066C207.433 239.777 208.993 239.137 211.016 239.137V231.137ZM200.564 235.285C197.361 238.33 195.996 243.133 195.582 248.543L203.559 249.154C203.926 244.355 205.061 242.049 206.076 241.083L200.564 235.285ZM237.969 219.825L241.465 221.767L241.472 221.756L237.969 219.825ZM240.703 214.864L244.206 216.795L244.212 216.784L244.219 216.772L240.703 214.864ZM239.336 267.817C239.367 267.817 240.124 267.827 240.846 268.549C241.568 269.271 241.578 270.029 241.578 270.059H233.578C233.578 271.262 233.881 272.898 235.189 274.206C236.497 275.514 238.133 275.817 239.336 275.817V267.817ZM241.578 270.059V221.309H233.578V270.059H241.578ZM241.578 221.309C241.578 221.386 241.568 221.475 241.544 221.565C241.52 221.656 241.489 221.724 241.465 221.767L234.472 217.882C233.892 218.927 233.578 220.088 233.578 221.309H241.578ZM241.472 221.756L244.206 216.795L237.2 212.933L234.466 217.894L241.472 221.756ZM244.219 216.772C244.407 216.425 244.463 216.387 244.371 216.491C244.322 216.546 244.139 216.748 243.81 216.957C243.481 217.167 242.823 217.497 241.914 217.497V209.497C239.909 209.497 238.699 210.829 238.383 211.186C237.887 211.745 237.494 212.391 237.188 212.956L244.219 216.772ZM241.914 217.497H243.281V209.497H241.914V217.497ZM243.281 217.497C242.88 217.497 241.903 217.351 241.123 216.442C240.445 215.65 240.453 214.887 240.453 214.864H248.453C248.453 213.93 248.266 212.482 247.197 211.235C246.027 209.87 244.463 209.497 243.281 209.497V217.497ZM240.453 214.864V270.059H248.453V214.864H240.453ZM240.453 270.059C240.453 270.029 240.463 269.271 241.185 268.549C241.907 267.827 242.665 267.817 242.695 267.817V275.817C243.898 275.817 245.534 275.514 246.842 274.206C248.15 272.898 248.453 271.262 248.453 270.059H240.453ZM242.695 267.817H239.336V275.817H242.695V267.817ZM255.938 219.825L259.434 221.767L259.441 221.756L255.938 219.825ZM258.672 214.864L262.175 216.795L262.181 216.784L262.187 216.772L258.672 214.864ZM257.305 267.817C257.335 267.817 258.093 267.827 258.815 268.549C259.537 269.271 259.547 270.029 259.547 270.059H251.547C251.547 271.262 251.85 272.898 253.158 274.206C254.466 275.514 256.102 275.817 257.305 275.817V267.817ZM259.547 270.059V221.309H251.547V270.059H259.547ZM259.547 221.309C259.547 221.386 259.537 221.475 259.513 221.565C259.489 221.656 259.458 221.724 259.434 221.767L252.441 217.882C251.86 218.927 251.547 220.088 251.547 221.309H259.547ZM259.441 221.756L262.175 216.795L255.169 212.933L252.434 217.894L259.441 221.756ZM262.187 216.772C262.376 216.425 262.432 216.387 262.34 216.491C262.291 216.546 262.108 216.748 261.779 216.957C261.449 217.167 260.792 217.497 259.883 217.497V209.497C257.878 209.497 256.668 210.829 256.351 211.186C255.856 211.745 255.463 212.391 255.156 212.956L262.187 216.772ZM259.883 217.497H261.25V209.497H259.883V217.497ZM261.25 217.497C260.849 217.497 259.871 217.351 259.092 216.442C258.414 215.65 258.422 214.887 258.422 214.864H266.422C266.422 213.93 266.235 212.482 265.166 211.235C263.996 209.87 262.432 209.497 261.25 209.497V217.497ZM258.422 214.864V270.059H266.422V214.864H258.422ZM258.422 270.059C258.422 270.029 258.432 269.271 259.154 268.549C259.876 267.827 260.633 267.817 260.664 267.817V275.817C261.867 275.817 263.503 275.514 264.811 274.206C266.119 272.898 266.422 271.262 266.422 270.059H258.422ZM260.664 267.817H257.305V275.817H260.664V267.817ZM276.133 235.88L273.075 233.3L276.133 235.88ZM302.422 235.411L299.498 238.14L299.508 238.151L299.519 238.162L302.422 235.411ZM278.555 253.926V249.926H274.187L274.57 254.277L278.555 253.926ZM282.617 264.434L279.986 267.447L279.995 267.455L280.005 267.464L282.617 264.434ZM300.82 262.833L304 265.259L304.002 265.257L300.82 262.833ZM303.242 262.208L300.622 265.23L300.626 265.234L303.242 262.208ZM305.547 264.2L308.172 261.181L308.163 261.174L305.547 264.2ZM305.547 266.348L302.204 264.152L302.201 264.156L305.547 266.348ZM301.289 269.981L298.971 266.721L298.962 266.727L298.954 266.734L301.289 269.981ZM275.898 266.739L272.779 269.243L272.784 269.249L272.789 269.256L275.898 266.739ZM278.398 248.848L274.41 248.543L274.081 252.848H278.398V248.848ZM300.469 248.848V252.848H304.585L304.467 248.734L300.469 248.848ZM297.656 239.278L294.289 241.438L294.294 241.445L294.299 241.452L297.656 239.278ZM282.148 238.184L284.904 241.083L284.914 241.074L284.923 241.066L282.148 238.184ZM275.289 251.309C275.289 245.516 276.728 241.378 279.19 238.459L273.075 233.3C269.079 238.038 267.289 244.186 267.289 251.309H275.289ZM279.19 238.459C281.506 235.714 284.902 234.137 290 234.137V226.137C283.067 226.137 277.218 228.389 273.075 233.3L279.19 238.459ZM290 234.137C293.941 234.137 297.006 235.471 299.498 238.14L305.346 232.682C301.275 228.32 296.059 226.137 290 226.137V234.137ZM299.519 238.162C301.802 240.572 303.383 244.925 303.383 252.169H311.383C311.383 244.047 309.656 237.229 305.325 232.659L299.519 238.162ZM303.383 252.169C303.383 252.165 303.383 252.128 303.391 252.064C303.4 252 303.417 251.901 303.455 251.775C303.534 251.516 303.7 251.151 304.026 250.793C304.754 249.994 305.598 249.926 305.781 249.926V257.926C307.033 257.926 308.677 257.566 309.939 256.181C311.137 254.867 311.383 253.284 311.383 252.169H303.383ZM305.781 249.926H278.555V257.926H305.781V249.926ZM274.57 254.277C275.046 259.679 276.559 264.454 279.986 267.447L285.249 261.422C284.144 260.456 282.949 258.226 282.539 253.575L274.57 254.277ZM280.005 267.464C282.962 270.013 286.444 271.364 290.312 271.364V263.364C288.452 263.364 286.803 262.762 285.229 261.405L280.005 267.464ZM290.312 271.364C293.685 271.364 296.872 270.814 299.395 269.226L295.136 262.455C294.43 262.899 292.981 263.364 290.312 263.364V271.364ZM299.395 269.226C301.222 268.077 302.843 266.775 304 265.259L297.641 260.406C297.287 260.869 296.538 261.572 295.136 262.455L299.395 269.226ZM304.002 265.257C304.199 264.998 303.922 265.504 303.05 265.729C302.556 265.857 302.02 265.85 301.519 265.702C301.051 265.564 300.755 265.345 300.622 265.23L305.862 259.185C304.747 258.219 303.038 257.47 301.051 257.983C299.372 258.416 298.275 259.574 297.639 260.408L304.002 265.257ZM300.626 265.234L302.931 267.226L308.163 261.174L305.858 259.182L300.626 265.234ZM302.922 267.218C302.727 267.048 302.478 266.772 302.284 266.37C302.084 265.958 301.996 265.526 301.996 265.128C301.996 264.396 302.284 264.031 302.204 264.152L308.89 268.545C309.409 267.755 309.996 266.575 309.996 265.128C309.996 263.478 309.239 262.109 308.172 261.181L302.922 267.218ZM302.201 264.156C302.283 264.031 302.175 264.217 301.515 264.78C300.929 265.28 300.092 265.924 298.971 266.721L303.607 273.241C304.83 272.372 305.874 271.577 306.708 270.866C307.467 270.218 308.316 269.421 308.893 268.54L302.201 264.156ZM298.954 266.734C297.661 267.663 295.033 268.481 290.312 268.481V276.481C295.592 276.481 300.282 275.632 303.624 273.229L298.954 266.734ZM290.312 268.481C284.592 268.481 281.119 266.83 279.007 264.222L272.789 269.256C276.876 274.304 283.012 276.481 290.312 276.481V268.481ZM279.018 264.235C276.673 261.314 275.289 257.146 275.289 251.309H267.289C267.289 258.389 268.978 264.508 272.779 269.243L279.018 264.235ZM278.398 252.848H300.469V244.848H278.398V252.848ZM304.467 248.734C304.345 244.446 303.229 240.524 301.014 237.104L294.299 241.452C295.625 243.5 296.385 245.959 296.47 248.963L304.467 248.734ZM301.023 237.118C298.475 233.146 294.565 231.137 289.844 231.137V239.137C291.998 239.137 293.296 239.889 294.289 241.438L301.023 237.118ZM289.844 231.137C285.824 231.137 282.254 232.529 279.374 235.303L284.923 241.066C286.261 239.777 287.821 239.137 289.844 239.137V231.137ZM279.392 235.285C276.189 238.33 274.824 243.133 274.41 248.543L282.387 249.154C282.754 244.355 283.889 242.049 284.904 241.083L279.392 235.285ZM323.203 237.247H319.203V241.247H323.203V237.247ZM323.359 237.247V241.247H325.759L326.889 239.129L323.359 237.247ZM327.773 231.934L330.084 235.199L327.773 231.934ZM337.617 230.567L336.059 234.251L336.109 234.272L336.16 234.292L337.617 230.567ZM338.281 231.739L334.435 230.64L334.432 230.649L334.43 230.659L338.281 231.739ZM337.383 234.942L333.531 233.862L333.529 233.871L337.383 234.942ZM336.367 235.489L335.583 239.411L335.601 239.415L335.619 239.418L336.367 235.489ZM326.25 239.356L329.49 241.701L329.496 241.694L329.501 241.687L326.25 239.356ZM318.164 267.817C318.195 267.817 318.952 267.827 319.674 268.549C320.396 269.271 320.406 270.029 320.406 270.059H312.406C312.406 271.262 312.71 272.898 314.017 274.206C315.325 275.514 316.962 275.817 318.164 275.817V267.817ZM320.406 270.059V232.559H312.406V270.059H320.406ZM320.406 232.559C320.406 232.59 320.396 233.348 319.674 234.069C318.952 234.791 318.195 234.801 318.164 234.801V226.801C316.962 226.801 315.325 227.105 314.017 228.412C312.71 229.72 312.406 231.357 312.406 232.559H320.406ZM318.164 234.801H321.445V226.801H318.164V234.801ZM321.445 234.801C321.415 234.801 320.657 234.791 319.935 234.069C319.213 233.348 319.203 232.59 319.203 232.559H327.203C327.203 231.357 326.9 229.72 325.592 228.412C324.284 227.105 322.648 226.801 321.445 226.801V234.801ZM319.203 232.559V237.247H327.203V232.559H319.203ZM323.203 241.247H323.359V233.247H323.203V241.247ZM326.889 239.129C327.926 237.185 329.022 235.951 330.084 235.199L325.463 228.669C323.139 230.313 321.293 232.621 319.83 235.364L326.889 239.129ZM330.084 235.199C330.965 234.576 332.22 234.137 334.102 234.137V226.137C330.931 226.137 327.967 226.897 325.463 228.669L330.084 235.199ZM334.102 234.137C334.833 234.137 335.371 234.169 335.745 234.215C336.156 234.265 336.206 234.313 336.059 234.251L339.176 226.883C337.689 226.254 335.794 226.137 334.102 226.137V234.137ZM336.16 234.292C335.965 234.216 335.255 233.894 334.752 233.008C334.202 232.037 334.301 231.108 334.435 230.64L342.127 232.838C342.417 231.823 342.484 230.426 341.713 229.064C340.989 227.787 339.868 227.153 339.075 226.842L336.16 234.292ZM334.43 230.659L333.531 233.862L341.234 236.022L342.133 232.819L334.43 230.659ZM333.529 233.871C333.673 233.351 334.105 232.463 335.135 231.908C336.068 231.406 336.88 231.515 337.116 231.56L335.619 239.418C336.401 239.567 337.656 239.637 338.928 238.952C340.296 238.216 340.962 237.002 341.237 236.013L333.529 233.871ZM337.152 231.567C336.02 231.34 334.896 231.215 333.789 231.215V239.215C334.297 239.215 334.892 239.273 335.583 239.411L337.152 231.567ZM333.789 231.215C329.29 231.215 325.63 233.357 322.999 237.025L329.501 241.687C330.829 239.835 332.194 239.215 333.789 239.215V231.215ZM323.01 237.011C320.373 240.654 319.281 245.316 319.281 250.567H327.281C327.281 246.339 328.169 243.527 329.49 241.701L323.01 237.011ZM319.281 250.567V270.059H327.281V250.567H319.281ZM319.281 270.059C319.281 270.029 319.292 269.271 320.013 268.549C320.735 267.827 321.493 267.817 321.523 267.817V275.817C322.726 275.817 324.363 275.514 325.67 274.206C326.978 272.898 327.281 271.262 327.281 270.059H319.281ZM321.523 267.817H318.164V275.817H321.523V267.817ZM343.008 267.989L345.789 265.115L345.765 265.091L345.74 265.068L343.008 267.989ZM342.5 265.88L345.746 268.217L345.751 268.211L345.755 268.204L342.5 265.88ZM344.258 263.419L341.032 261.053L341.017 261.073L341.003 261.094L344.258 263.419ZM346.797 263.536L344.362 266.709L344.371 266.716L346.797 263.536ZM351.914 266.348L350.51 270.094L350.518 270.097L350.526 270.1L351.914 266.348ZM362.227 266.895L363.384 270.724L363.425 270.712L363.465 270.699L362.227 266.895ZM365.156 264.903L362.171 262.241L362.151 262.263L362.131 262.286L365.156 264.903ZM365.82 258.38L362.198 260.077L362.22 260.123L362.243 260.168L365.82 258.38ZM363.945 256.387L361.825 259.779L361.887 259.818L361.949 259.854L363.945 256.387ZM361.484 255.176L360.088 258.925L360.117 258.936L360.147 258.946L361.484 255.176ZM357.5 253.965L356.493 257.837L356.539 257.848L356.584 257.859L357.5 253.965ZM352.344 252.442L353.553 248.629L353.539 248.625L353.525 248.62L352.344 252.442ZM348.281 250.567L346.094 253.916L346.118 253.932L346.143 253.947L348.281 250.567ZM344.922 247.208L341.594 249.426L341.608 249.448L341.622 249.469L344.922 247.208ZM351.602 231.153L352.683 235.004L352.703 234.998L352.723 234.993L351.602 231.153ZM366.133 231.27L364.69 235.001L364.72 235.013L364.75 235.024L366.133 231.27ZM371.25 233.887L373.585 230.639L373.574 230.632L373.564 230.624L371.25 233.887ZM371.602 235.958L368.427 233.524L368.414 233.541L368.402 233.558L371.602 235.958ZM369.844 238.301L366.644 235.901L366.624 235.928L366.604 235.955L369.844 238.301ZM367.305 238.223L369.609 234.953L369.604 234.951L367.305 238.223ZM350.82 243.419L347.097 244.881L347.106 244.905L347.116 244.928L350.82 243.419ZM355.703 246.817L356.717 242.948L356.707 242.945L355.703 246.817ZM361.68 248.38L360.67 252.25L360.684 252.254L361.68 248.38ZM366.602 250.098L368.29 246.472L368.286 246.47L366.602 250.098ZM370.977 253.028L368.078 255.785L368.096 255.803L368.113 255.821L370.977 253.028ZM373.125 256.505L369.307 257.698L369.311 257.709L369.314 257.721L373.125 256.505ZM371.211 267.676L368.185 265.06L368.175 265.072L368.165 265.083L371.211 267.676ZM365.703 271.544L366.879 275.367L366.902 275.36L366.924 275.353L365.703 271.544ZM348.359 270.84L346.856 274.547L346.877 274.556L346.898 274.564L348.359 270.84ZM345.74 265.068C345.627 264.962 345.993 265.247 346.164 265.959C346.258 266.348 346.273 266.791 346.174 267.241C346.077 267.68 345.897 268.007 345.746 268.217L339.254 263.542C338.422 264.697 337.997 266.215 338.386 267.831C338.727 269.247 339.581 270.261 340.275 270.91L345.74 265.068ZM345.755 268.204L347.513 265.744L341.003 261.094L339.245 263.555L345.755 268.204ZM347.483 265.784C347.34 265.98 347.058 266.287 346.592 266.531C346.106 266.786 345.591 266.879 345.138 266.858C344.362 266.822 344.06 266.478 344.362 266.709L349.232 260.363C348.414 259.734 347.129 258.941 345.507 258.866C343.536 258.775 341.978 259.763 341.032 261.053L347.483 265.784ZM344.371 266.716C346.23 268.134 348.282 269.258 350.51 270.094L353.319 262.603C351.796 262.032 350.437 261.281 349.223 260.355L344.371 266.716ZM350.526 270.1C352.949 270.996 355.593 271.403 358.398 271.403V263.403C356.36 263.403 354.681 263.107 353.302 262.597L350.526 270.1ZM358.398 271.403C360.138 271.403 361.816 271.198 363.384 270.724L361.069 263.066C360.398 263.269 359.523 263.403 358.398 263.403V271.403ZM363.465 270.699C365.334 270.09 366.912 268.987 368.182 267.52L362.131 262.286C361.734 262.746 361.359 262.971 360.988 263.092L363.465 270.699ZM368.141 267.565C369.807 265.699 370.445 263.377 370.445 261.036H362.445C362.445 261.924 362.225 262.18 362.171 262.241L368.141 267.565ZM370.445 261.036C370.445 259.481 370.094 257.983 369.398 256.591L362.243 260.168C362.38 260.443 362.445 260.715 362.445 261.036H370.445ZM369.442 256.682C368.676 255.048 367.453 253.791 365.941 252.921L361.949 259.854C362.156 259.973 362.183 260.045 362.198 260.077L369.442 256.682ZM366.065 252.995C365.021 252.343 363.94 251.803 362.822 251.407L360.147 258.946C360.644 259.122 361.203 259.39 361.825 259.779L366.065 252.995ZM362.881 251.428C361.402 250.877 359.913 250.424 358.416 250.072L356.584 257.859C357.743 258.132 358.911 258.486 360.088 258.925L362.881 251.428ZM358.507 250.094C357.302 249.781 355.659 249.297 353.553 248.629L351.135 256.255C353.3 256.941 355.094 257.473 356.493 257.837L358.507 250.094ZM353.525 248.62C352.432 248.283 351.4 247.807 350.42 247.187L346.143 253.947C347.715 254.942 349.391 255.716 351.163 256.264L353.525 248.62ZM350.468 247.218C349.68 246.703 348.924 245.972 348.222 244.947L341.622 249.469C342.847 251.256 344.33 252.764 346.094 253.916L350.468 247.218ZM348.25 244.989C347.91 244.479 347.516 243.419 347.516 241.387H339.516C339.516 244.304 340.059 247.124 341.594 249.426L348.25 244.989ZM347.516 241.387C347.516 239.744 347.988 238.498 348.879 237.442L342.762 232.286C340.579 234.876 339.516 237.979 339.516 241.387H347.516ZM348.879 237.442C349.893 236.238 351.129 235.441 352.683 235.004L350.52 227.302C347.439 228.168 344.82 229.844 342.762 232.286L348.879 237.442ZM352.723 234.993C354.714 234.411 356.589 234.137 358.359 234.137V226.137C355.755 226.137 353.125 226.541 350.48 227.313L352.723 234.993ZM358.359 234.137C361.334 234.137 363.377 234.493 364.69 235.001L367.575 227.539C364.982 226.537 361.843 226.137 358.359 226.137V234.137ZM364.75 235.024C366.463 235.655 367.842 236.374 368.936 237.15L373.564 230.624C371.793 229.369 369.761 228.344 367.516 227.517L364.75 235.024ZM368.915 237.135C368.874 237.106 368.205 236.615 368.019 235.524C367.826 234.387 368.332 233.648 368.427 233.524L374.776 238.391C375.47 237.486 376.217 236.012 375.906 234.184C375.604 232.403 374.459 231.268 373.585 230.639L368.915 237.135ZM368.402 233.558L366.644 235.901L373.044 240.701L374.802 238.358L368.402 233.558ZM366.604 235.955C366.763 235.736 367.056 235.422 367.523 235.177C368.004 234.925 368.501 234.837 368.922 234.85C369.642 234.872 369.919 235.172 369.609 234.953L365.001 241.493C365.836 242.082 367.11 242.798 368.676 242.846C370.575 242.905 372.125 241.971 373.084 240.647L366.604 235.955ZM369.604 234.951C368.2 233.964 366.432 233.179 364.485 232.52L361.922 240.098C363.516 240.638 364.482 241.129 365.005 241.496L369.604 234.951ZM364.485 232.52C362.456 231.834 360.456 231.411 358.555 231.411V239.411C359.309 239.411 360.409 239.587 361.922 240.098L364.485 232.52ZM358.555 231.411C356.638 231.411 354.809 231.621 353.148 232.138L355.524 239.777C356.207 239.565 357.19 239.411 358.555 239.411V231.411ZM353.148 232.138C351.286 232.717 349.656 233.76 348.397 235.29L354.572 240.376C354.771 240.134 355.042 239.927 355.524 239.777L353.148 232.138ZM348.397 235.29C347.05 236.925 346.391 238.877 346.391 240.958H354.391C354.391 240.643 354.46 240.511 354.572 240.376L348.397 235.29ZM346.391 240.958C346.391 242.289 346.6 243.617 347.097 244.881L354.543 241.956C354.467 241.762 354.391 241.449 354.391 240.958H346.391ZM347.116 244.928C347.739 246.457 348.806 247.64 349.988 248.546L354.856 242.197C354.475 241.905 354.475 241.787 354.525 241.909L347.116 244.928ZM349.988 248.546C351.347 249.588 352.999 250.248 354.699 250.689L356.707 242.945C355.594 242.657 355.06 242.354 354.856 242.197L349.988 248.546ZM354.69 250.687C356.878 251.26 358.872 251.781 360.67 252.25L362.689 244.509C360.894 244.041 358.903 243.52 356.717 242.948L354.69 250.687ZM360.684 252.254C362.309 252.671 363.714 253.168 364.917 253.726L368.286 246.47C366.573 245.675 364.696 245.025 362.676 244.506L360.684 252.254ZM364.913 253.724C366.537 254.481 367.521 255.199 368.078 255.785L373.875 250.271C372.401 248.722 370.468 247.487 368.29 246.472L364.913 253.724ZM368.113 255.821C368.777 256.501 369.129 257.128 369.307 257.698L376.943 255.311C376.34 253.381 375.26 251.69 373.84 250.235L368.113 255.821ZM369.314 257.721C369.56 258.489 369.711 259.438 369.711 260.606H377.711C377.711 258.754 377.472 256.968 376.936 255.288L369.314 257.721ZM369.711 260.606C369.711 262.529 369.163 263.93 368.185 265.06L374.236 270.293C376.592 267.569 377.711 264.257 377.711 260.606H369.711ZM368.165 265.083C366.917 266.55 365.681 267.35 364.482 267.734L366.924 275.353C369.788 274.435 372.224 272.657 374.257 270.269L368.165 265.083ZM364.527 267.72C362.983 268.196 360.954 268.481 358.359 268.481V276.481C361.494 276.481 364.361 276.142 366.879 275.367L364.527 267.72ZM358.359 268.481C354.838 268.481 352.026 267.983 349.821 267.117L346.898 274.564C350.265 275.886 354.12 276.481 358.359 276.481V268.481ZM349.863 267.134C348.557 266.604 347.559 266.145 346.832 265.758C346.471 265.565 346.206 265.406 346.019 265.281C345.824 265.151 345.767 265.093 345.789 265.115L340.226 270.863C341.031 271.642 342.067 272.283 343.07 272.818C344.127 273.381 345.401 273.957 346.856 274.547L349.863 267.134Z" fill="#CA0707" mask="url(#path-7-outside-1_2_76)"/>
<path d="M211 65.817H254C276.644 65.817 295 84.1734 295 106.817V207.817H269.004C260.677 207.817 253.32 202.395 250.855 194.441L211 65.817Z" fill="#CA0707"/>
<path d="M292.216 99.817V99.817C275.528 111.073 271.125 133.726 282.381 150.414L323.603 211.528L338.067 201.772C346.767 195.904 349.062 184.095 343.194 175.395L292.216 99.817Z" fill="#CA0707"/>
<path d="M327.7 56.817V56.817C340.6 65.5185 344.004 83.0302 335.303 95.9306L287.358 167.011L279.752 161.881C271.052 156.013 268.757 144.204 274.625 135.504L327.7 56.817Z" fill="#CA0707"/>
</svg>
